<svg width="38" height="34" viewBox="0 0 38 34" fill="none" xmlns="http://www.w3.org/2000/svg">
<path d="M38 8.5V30.3571C38 32.3683 36.4043 34 34.4375 34H3.5625C1.5957 34 0 32.3683 0 30.3571V8.5C0 6.48884 1.5957 4.85714 3.5625 4.85714H10.0938L11.0066 2.36027C11.5262 0.941071 12.8547 0 14.3391 0H23.6535C25.1379 0 26.4664 0.941071 26.9859 2.36027L27.9062 4.85714H34.4375C36.4043 4.85714 38 6.48884 38 8.5ZM27.9062 19.4286C27.9062 14.4045 23.9133 10.3214 19 10.3214C14.0867 10.3214 10.0938 14.4045 10.0938 19.4286C10.0938 24.4527 14.0867 28.5357 19 28.5357C23.9133 28.5357 27.9062 24.4527 27.9062 19.4286ZM25.5312 19.4286C25.5312 23.1094 22.5996 26.1071 19 26.1071C15.4004 26.1071 12.4688 23.1094 12.4688 19.4286C12.4688 15.7478 15.4004 12.75 19 12.75C22.5996 12.75 25.5312 15.7478 25.5312 19.4286Z" fill="#575757"/>
</svg>
