<svg width="29" height="35" viewBox="0 0 29 35" fill="none" xmlns="http://www.w3.org/2000/svg">
<path d="M17.625 2H5.125C4.2962 2 3.50134 2.32924 2.91529 2.91529C2.32924 3.50134 2 4.2962 2 5.125V30.125C2 30.9538 2.32924 31.7487 2.91529 32.3347C3.50134 32.9208 4.2962 33.25 5.125 33.25H23.875C24.7038 33.25 25.4987 32.9208 26.0847 32.3347C26.6708 31.7487 27 30.9538 27 30.125V11.375L17.625 2Z" stroke="white" stroke-width="2.5" stroke-linecap="round" stroke-linejoin="round"/>
<path d="M17.625 2V11.375H27" stroke="white" stroke-width="2.5" stroke-linecap="round" stroke-linejoin="round"/>
<path d="M20.75 19.1875H8.25" stroke="white" stroke-width="2.5" stroke-linecap="round" stroke-linejoin="round"/>
<path d="M20.75 25.4375H8.25" stroke="white" stroke-width="2.5" stroke-linecap="round" stroke-linejoin="round"/>
<path d="M11.375 12.9375H9.8125H8.25" stroke="white" stroke-width="2.5" stroke-linecap="round" stroke-linejoin="round"/>
</svg>
